<?xml version="1.0" encoding="iso-8859-1"?>
<!-- Uploaded to: SVG Repo, www.svgrepo.com, Generator: SVG Repo Mixer Tools -->
<!DOCTYPE svg PUBLIC "-//W3C//DTD SVG 1.1//EN" "http://www.w3.org/Graphics/SVG/1.1/DTD/svg11.dtd">
<svg fill="#000000" version="1.1" id="Capa_1" xmlns="http://www.w3.org/2000/svg" xmlns:xlink="http://www.w3.org/1999/xlink" 
	 width="800px" height="800px" viewBox="0 0 253.723 253.723"
	 xml:space="preserve">
<g>
	<g>
		<path d="M209.556,53.96c-4.283-3.672-7.955-7.345-12.24-11.017c-2.447,0.612-4.283,0.612-6.73,1.225
			c-3.061,1.224-6.121,3.06-9.18,4.896c0,1.225-1.225,1.836-1.838,1.225c-1.223,1.224-2.447,1.836-4.283,2.447c0,0-0.611,0-1.225,0
			c0.613,1.836,1.225,3.672,1.836,6.12c1.836,13.464-11.627,24.48-22.643,33.048c6.119-1.224,13.463-4.896,16.523-5.508
			c7.955-2.448,15.912-5.508,23.256-9.18C199.765,73.544,212.616,63.752,209.556,53.96z"/>
		<path d="M181.405,43.556c7.344-4.284,15.91-7.344,23.867-4.284c-2.447-7.344-3.061-14.688-11.016-18.972
			c-6.732-3.672-15.301-3.672-22.033,0c0,0.612,0,1.224,0,1.836c0,1.224-1.223,2.448-1.836,3.06
			C176.509,30.092,180.792,36.212,181.405,43.556z"/>
		<path d="M133.669,26.42c-5.509,1.224-20.197,6.731-23.869,14.076c1.836,1.224,3.06,2.447,4.284,4.283
			c7.956-5.508,20.196-6.731,28.764-6.731c10.404,0.611,23.867,3.672,29.988,12.24c0,0,0-0.612,0.611-0.612
			c1.225-1.225,2.447-1.836,3.672-3.061c-4.896-10.403-11.627-18.359-23.256-21.42C147.132,23.972,139.788,24.584,133.669,26.42z"/>
		<path d="M138.563,90.067c0.613,0,1.225,0,2.449,0c6.732-6.12,14.688-11.628,21.42-17.748c14.688-15.3-1.836-23.868-14.688-25.092
			c-11.018-1.224-36.109-0.612-31.825,18.36c2.448,9.792,13.463,17.748,21.42,22.032C138.563,88.231,138.563,89.456,138.563,90.067z
			"/>
		<path d="M120.204,23.359c9.18-4.284,20.195-6.731,26.316-6.731c5.508,0,11.016,1.224,15.912,3.672
			c0-0.612,0.611-1.225,0.611-1.836c-4.896-9.181-9.18-17.137-21.42-18.36c-11.627-1.224-20.808,8.568-22.032,19.584
			c0,0.612,0.612,1.225,0.612,2.448C120.204,22.748,120.204,22.748,120.204,23.359z"/>
		<path d="M144.685,98.023c-1.836,0.612-3.672-0.611-4.285-1.836c-9.18,3.061-21.419,3.672-33.659,1.225
			c9.18,7.344,18.972,12.239,31.212,13.464c13.465,1.224,22.031-3.061,29.377-14.076C159.372,98.636,150.192,101.084,144.685,98.023
			z"/>
		<path d="M109.188,165.955c0.612,3.061,1.836,6.732,2.448,9.792c5.508,1.836,11.016,3.061,15.912,4.896
			C122.652,174.523,115.92,169.627,109.188,165.955z"/>
		<path d="M73.692,44.779c1.224-0.611,2.448,0,3.06,0.612c7.956-7.344,20.196-11.016,29.376-7.344
			c0.612-4.896,4.284-9.181,9.792-12.24c-0.612-1.224-1.224-2.448-1.224-3.672c-3.06-2.448-6.12-4.896-9.792-6.12
			c-4.896-1.836-10.404-1.836-15.912-0.612c-5.508,1.836-9.792,6.12-12.852,11.017c-1.224,3.06-2.448,6.12-3.06,9.792
			C73.081,36.823,73.692,44.779,73.692,44.779z"/>
		<path d="M104.904,58.243c0.612-4.896,3.06-8.567,6.12-11.016c-1.224-1.836-2.448-2.448-3.672-3.672c0,0-0.612,0-0.612-0.612
			c-4.896-2.447-11.628-0.611-16.524,1.225c-7.344,3.06-14.076,11.016-13.464,19.584c0.612,9.18,12.852,15.912,20.196,18.972
			c9.18,3.672,18.972,4.896,28.764,5.508C114.084,82.111,103.068,71.096,104.904,58.243z"/>
		<path d="M97.561,180.644c-4.896,1.224-9.18,1.836-14.076,2.448c11.016,3.06,22.644,3.672,35.496,1.224
			c-6.732-1.224-13.464-3.06-19.584-4.896C98.172,180.644,98.172,180.644,97.561,180.644z"/>
		<path d="M89.604,169.016c5.508,1.836,11.016,3.06,16.524,4.896c-1.224-3.672-2.448-7.344-3.06-11.016
			c-5.508-2.448-11.016-4.284-17.136-5.508C87.769,161.06,88.992,164.731,89.604,169.016z"/>
		<path d="M78.588,172.688c-4.896,0.612-9.792,1.224-14.688,1.224c3.672,2.448,7.344,4.284,11.628,6.12
			c5.508-1.224,10.404-2.448,15.912-3.06C86.544,176.359,82.26,174.523,78.588,172.688z"/>
		<path d="M84.096,167.18c-1.224-3.672-2.448-7.345-3.672-11.017c-5.508-1.224-10.404-1.836-15.912-2.447
			c0.612,2.447,0.612,4.283,0,6.731C71.244,162.896,77.364,165.344,84.096,167.18z"/>
		<path d="M44.316,156.163c4.896,5.509,9.792,10.404,14.688,14.688c3.672-0.612,7.956-1.225,11.628-1.225
			C61.452,165.344,52.884,161.06,44.316,156.163z"/>
		<path d="M60.229,153.716c-5.508-0.612-11.628-0.612-16.524-1.225c6.12,2.448,11.628,4.896,17.748,6.732
			C60.84,157.388,60.229,155.552,60.229,153.716z"/>
		<path d="M147.132,117.607c0.613-4.896-6.119-4.896-7.955-1.224c-14.688,41.004-13.464,95.472,7.344,134.64
			c3.061,5.508,11.016,1.836,9.791-4.284c-4.283-22.644-11.016-44.676-12.238-67.932
			C143.46,157.999,145.909,137.804,147.132,117.607z"/>
	</g>
</g>
</svg>